<svg height="24" viewBox="0 0 24 24" width="24" xmlns="http://www.w3.org/2000/svg"><path d="m0 0h24v24h-24z" fill="none"/><g transform="translate(3.67 3.67)"><path d="m5.662 7.809h-3.514a2.15 2.15 0 0 1 -2.148-2.147v-3.514a2.15 2.15 0 0 1 2.148-2.148h3.514a2.15 2.15 0 0 1 2.147 2.148v3.514a2.15 2.15 0 0 1 -2.147 2.147zm-3.514-6.768a1.108 1.108 0 0 0 -1.107 1.107v3.514a1.108 1.108 0 0 0 1.107 1.106h3.514a1.108 1.108 0 0 0 1.106-1.106v-3.514a1.108 1.108 0 0 0 -1.106-1.107z"/><path d="m277.662 7.809h-3.514a2.15 2.15 0 0 1 -2.148-2.147v-3.514a2.15 2.15 0 0 1 2.148-2.148h3.514a2.15 2.15 0 0 1 2.148 2.148v3.514a2.15 2.15 0 0 1 -2.148 2.147zm-3.514-6.768a1.108 1.108 0 0 0 -1.106 1.106v3.515a1.108 1.108 0 0 0 1.106 1.106h3.514a1.108 1.108 0 0 0 1.106-1.106v-3.514a1.108 1.108 0 0 0 -1.106-1.106z" transform="translate(-263.149)"/><path d="m275.9 279.809a3.9 3.9 0 1 1 3.9-3.9 3.909 3.909 0 0 1 -3.9 3.9zm0-6.768a2.863 2.863 0 1 0 2.863 2.863 2.867 2.867 0 0 0 -2.863-2.863z" transform="translate(-263.149 -263.149)"/><path d="m5.662 279.809h-3.514a2.15 2.15 0 0 1 -2.148-2.147v-3.514a2.15 2.15 0 0 1 2.148-2.148h3.514a2.15 2.15 0 0 1 2.148 2.148v3.514a2.15 2.15 0 0 1 -2.148 2.147zm-3.514-6.768a1.108 1.108 0 0 0 -1.106 1.106v3.514a1.108 1.108 0 0 0 1.106 1.106h3.514a1.108 1.108 0 0 0 1.106-1.106v-3.514a1.108 1.108 0 0 0 -1.106-1.106z" transform="translate(0 -263.149)"/></g></svg>